# xmcd
#
# Track frame offsets: 
#        150
#        16777
#        39293
#        57788
#        79678
#        101883
#        119579
#        140064
#        159365
#        177132
#        203683
#
# Disc length: 3812 seconds
#
# Revision: 0
# Processed by: cddbd v1.5.2PL0 Copyright (c) Steve Scherf et al.
# Submitted via: ExactAudioCopy v1.0b1
#
DISCID=880ee20b
DTITLE=The Staple Singers - Be Altitude: Respect Yourself ZYX
DYEAR=1972
DGENRE=R&B
TTITLE0=This World
TTITLE1=Respect Yourself
TTITLE2=Name The Missing Word
TTITLE3=I'll Take You There
TTITLE4=This Old Town (People In This Town)
TTITLE5=We The People
TTITLE6=Are You Sure
TTITLE7=Who Do You Think You Are (Jesus Christ The Superstar)?
TTITLE8=I'm Just Another Soldier
TTITLE9=Who
TTITLE10=Data track
EXTD=
EXTT0=
EXTT1=
EXTT2=
EXTT3=
EXTT4=
EXTT5=
EXTT6=
EXTT7=
EXTT8=
EXTT9=
EXTT10=
PLAYORDER=
